<svg width="2353" height="1385" viewBox="0 0 2353 1385" fill="none" xmlns="http://www.w3.org/2000/svg">
<path fill-rule="evenodd" clip-rule="evenodd" d="M203.69 1382.16C91.359 1382.16 0 1290.26 0 1176.32C0 1062.94 91.359 970.502 203.69 970.502C277.864 970.502 342.882 1010.27 378.899 1070.46L306.878 1112.91C286.463 1079.05 246.685 1054.31 203.69 1054.31C139.192 1054.31 82.7601 1111.29 82.7601 1176.31C82.7601 1241.89 139.192 1298.33 203.69 1298.33C246.685 1298.33 286.995 1274.14 306.878 1238.66L379.43 1281.65C343.426 1341.87 278.383 1382.16 203.69 1382.16V1382.16ZM499.816 1372.49H412.75V981.241H499.816V1372.49ZM735.749 1372.67H648.683V1064H525.068V981.241H859.351V1064H735.736V1372.67H735.749ZM967.934 1160.74H1061.99C1094.78 1160.74 1123.26 1147.32 1123.26 1109.14C1123.26 1070.99 1096.92 1055.93 1061.99 1055.93H967.934V1160.74ZM967.934 1232.23V1372.49H883.565V981.241H1074.35C1158.19 981.241 1208.16 1028 1208.16 1108.07C1208.16 1172.04 1175.92 1212.34 1122.71 1226.32L1225.36 1372.49H1126.48L1035.65 1232.23H967.934ZM1440.89 1384.32C1326.95 1384.32 1234.51 1290.82 1234.51 1177.94C1234.51 1064.53 1326.95 971.565 1440.89 971.565C1555.36 971.565 1649.95 1064 1649.95 1177.94C1649.95 1290.82 1555.36 1384.32 1440.89 1384.32ZM1440.89 1058.1C1374.24 1058.1 1321.05 1112.39 1321.05 1179.03C1321.05 1244.59 1375.34 1297.78 1440.89 1297.78C1507.01 1297.78 1560.73 1244.58 1560.73 1179.03C1560.73 1112.38 1508.06 1058.1 1440.89 1058.1ZM1802.59 937.169C1802.59 955.989 1785.39 971.033 1766.57 971.033C1747.22 971.033 1733.27 955.989 1733.27 937.169C1733.25 932.649 1734.13 928.17 1735.86 923.991C1737.58 919.811 1740.11 916.014 1743.31 912.817C1746.51 909.621 1750.3 907.088 1754.48 905.364C1758.66 903.64 1763.14 902.76 1767.66 902.774C1786.46 902.761 1802.59 918.363 1802.59 937.169ZM1927.81 937.169C1927.81 955.989 1911.17 971.033 1891.82 971.033C1873 971.033 1859.05 955.989 1859.05 937.169C1859.05 918.376 1874.09 902.774 1892.89 902.774C1911.69 902.761 1927.81 918.363 1927.81 937.169V937.169ZM1767.13 1059.16V1132.81H1953.62V1204.29H1767.13V1291.36H1978.34V1372.5H1683.28V981.254H1978.34V1059.18H1767.13V1059.16V1059.16ZM2094.41 1115.06V1372.49H2009.5V981.241H2112.14L2267.48 1245.66V981.241H2352.92V1372.49H2248.13L2094.41 1115.06V1115.06Z" fill="#E51937"/>
<path fill-rule="evenodd" clip-rule="evenodd" d="M1568.58 784.619V0H783.97V784.619H1568.58V784.619Z" fill="#E51937"/>
<path fill-rule="evenodd" clip-rule="evenodd" d="M810.156 758.499L1176.28 444.604L1542.47 758.499L1176.28 276.166L810.156 758.499Z" fill="white"/>
<path fill-rule="evenodd" clip-rule="evenodd" d="M1176.28 26.1855L810.156 508.492L1176.28 194.624L1542.52 508.492L1176.28 26.1855V26.1855Z" fill="white"/>
</svg>
