<svg width="2133" height="1711" viewBox="0 0 2133 1711" fill="none" xmlns="http://www.w3.org/2000/svg">
<path fill-rule="evenodd" clip-rule="evenodd" d="M255.828 1494.93L287.799 1498.3C302.948 1500 302.947 1511.78 302.947 1520.2V1558.9H154.846V1520.2C154.846 1511.79 156.532 1500 171.681 1498.3L203.651 1494.93V1462.96H11.8022V1494.93L43.7857 1498.3C57.2483 1500 58.9214 1511.78 58.9214 1520.2V1644.73C58.9214 1653.16 57.2483 1664.95 43.7857 1666.63L11.8022 1670V1701.97H203.664V1670L171.694 1666.63C156.545 1664.95 154.859 1653.18 154.859 1644.73V1607.72H302.96V1644.73C302.96 1653.16 302.96 1664.95 287.812 1666.63L255.841 1670V1701.97H447.69V1670L415.72 1666.63C402.257 1664.95 400.571 1653.18 400.571 1644.73V1520.2C400.571 1511.79 402.257 1500 415.72 1498.3L447.69 1494.93V1462.96H255.828V1494.93ZM1539.95 1462.96H1302.64V1494.93L1331.27 1498.3C1341.35 1500 1348.09 1503.37 1348.09 1518.52V1644.72C1348.09 1653.15 1346.42 1664.94 1331.27 1666.61L1299.27 1669.98V1701.95H1539.95C1625.77 1701.95 1696.47 1668.31 1696.47 1582.46C1696.48 1496.63 1625.77 1462.96 1539.95 1462.96V1462.96ZM1523.13 1656.5H1442.34V1508.41H1523.13C1570.25 1508.41 1585.4 1530.3 1585.4 1582.45C1585.4 1634.63 1570.25 1656.5 1523.13 1656.5Z" fill="#E51937"/>
<path fill-rule="evenodd" clip-rule="evenodd" d="M2102.09 1666.6C2086.94 1664.93 2081.87 1654.82 2076.84 1648.08L1965.76 1478.11C1957.36 1466.33 1952.29 1462.96 1940.51 1462.96H1758.75V1494.93L1800.83 1500C1807.57 1500 1815.97 1508.41 1809.23 1520.2L1726.78 1653.16C1723.41 1658.21 1720.04 1664.94 1709.93 1666.61L1677.96 1669.98V1701.95H1831.12V1669.98L1805.87 1668.31C1794.09 1666.61 1787.35 1658.21 1794.09 1649.79L1805.87 1629.57H1953.99L1964.09 1646.42C1974.17 1659.87 1962.39 1666.61 1950.61 1666.61L1923.69 1669.98V1701.95H2132.37V1669.98L2102.09 1666.6V1666.6ZM1831.11 1585.82L1876.56 1513.45L1925.35 1585.82H1831.11ZM1129.3 1494.93L1162.97 1498.3C1176.42 1500 1178.12 1511.78 1178.12 1520.2V1639.69L1051.89 1473.08C1045.16 1464.65 1040.11 1462.97 1026.65 1462.97H861.711V1494.94L893.682 1498.32C908.83 1500.02 910.516 1511.79 910.516 1520.21V1644.75C910.516 1653.18 908.83 1664.97 893.682 1666.64L861.711 1670.01V1701.98H1014.86V1670.01L982.875 1666.64C969.412 1664.97 967.726 1653.19 967.726 1644.75V1525.25L1093.96 1691.89C1100.71 1700.29 1105.74 1701.97 1119.19 1701.97H1235.33V1520.21C1235.33 1511.81 1237 1500.02 1252.15 1498.32L1284.12 1494.94V1462.97H1129.29V1494.93H1129.3V1494.93ZM654.701 1454.56C498.182 1454.56 457.794 1523.56 457.794 1582.45C457.794 1643.05 498.182 1710.37 654.701 1710.37C811.22 1710.37 851.621 1643.05 851.621 1582.45C851.608 1523.56 811.22 1454.56 654.701 1454.56V1454.56ZM654.701 1664.93C594.119 1664.93 568.867 1639.67 568.867 1582.45C568.867 1525.23 594.106 1500 654.701 1500C715.296 1500 740.535 1525.23 740.535 1582.45C740.535 1639.67 715.296 1664.93 654.701 1664.93ZM570.553 1417.52L454.422 1309.8L1040.11 1242.5L1322.86 1417.52H570.553ZM1556.77 958.048L324.828 1188.64L430.856 1287.91L999.709 1217.24C989.606 1212.19 987.933 1207.13 987.933 1200.41C987.933 1193.67 992.978 1186.94 1003.07 1185.27C1008.13 1185.27 1317.79 1139.82 1339.67 1136.45C1349.75 1134.75 1375.02 1129.7 1401.94 1116.25C1428.87 1104.48 1445.69 1091 1455.79 1080.88C1464.2 1074.17 1487.76 1048.91 1504.61 1030.39C1514.16 1020.82 1523.15 1010.71 1531.53 1000.1C1538.28 991.692 1553.43 973.171 1560.13 964.753C1561.85 961.42 1560.15 958.048 1556.77 958.048V958.048ZM1750.33 688.783L210.396 1084.28L302.961 1170.13L777.563 1079.24C769.159 1074.19 764.101 1070.83 764.101 1062.42C764.166 1058.7 765.559 1055.13 768.028 1052.35C770.498 1049.57 773.88 1047.77 777.563 1047.27L1548.37 897.479C1558.47 895.793 1585.4 890.735 1610.64 873.913C1635.89 858.765 1649.36 841.943 1657.78 833.512C1667.86 821.736 1686.38 798.17 1699.86 781.348C1709.93 767.885 1718.38 754.423 1725.08 744.332C1731.83 734.242 1746.98 707.304 1755.38 695.527C1757.07 692.142 1753.71 687.097 1750.33 688.783V688.783Z" fill="#E51937"/>
<path fill-rule="evenodd" clip-rule="evenodd" d="M1546.7 241.106C1566.89 232.688 1669.56 188.928 1691.41 177.139C1714.99 167.048 1782.3 136.751 1807.56 124.974C1836.16 113.198 1916.94 74.4831 1928.72 69.4378C1985.94 42.5126 2056.64 8.85605 2070.09 0.43867C2073.46 -1.2474 2080.19 2.12473 2078.5 7.16997C2066.45 46.0165 2052.4 84.2157 2036.42 121.615C2026.34 145.181 2011.2 178.838 1997.72 200.718C1980.9 227.656 1964.08 246.151 1950.6 257.94C1922 284.879 1898.42 298.341 1873.18 308.445C1858.04 313.49 1826.07 326.952 1804.19 335.37C1799.14 337.056 1713.29 369.026 1694.77 374.072L176.726 910.942C141.383 922.719 100.996 946.272 100.996 991.718C100.996 1011.94 112.785 1038.86 136.338 1060.72L520.062 1417.52H341.662C338.303 1407.44 333.245 1392.29 326.514 1382.17C319.782 1372.06 316.423 1361.98 296.216 1343.47C281.081 1326.62 265.932 1311.5 260.874 1306.44L58.9087 1104.5C20.2069 1067.47 0 1018.66 0 974.909C0 914.314 33.6565 855.419 134.639 815.018L1546.7 241.106V241.106Z" fill="#E51937"/>
<path fill-rule="evenodd" clip-rule="evenodd" d="M1713.29 444.744C1733.49 438.012 1772.21 424.55 1782.29 421.191C1792.4 417.831 1832.78 402.683 1839.51 400.997C1866.44 389.22 1893.37 379.117 1921.99 367.34C1925.34 365.654 1930.39 369.026 1928.71 374.071C1925.34 382.489 1906.84 419.504 1901.78 427.922C1890.01 451.488 1878.23 473.368 1866.44 491.876C1854.66 510.397 1839.51 535.636 1829.42 547.425C1812.58 567.619 1797.43 581.082 1773.87 597.917C1743.58 618.11 1716.65 624.842 1704.88 629.9L585.702 929.45C577.297 931.123 573.925 941.226 573.925 944.598C573.925 951.343 578.97 958.048 585.702 961.42L188.516 1064.09L156.545 1033.79C144.769 1023.71 139.71 1008.57 139.71 996.776C139.71 968.151 161.59 954.702 196.946 942.925L1713.29 444.744V444.744Z" fill="#E51937"/>
</svg>
