<svg width="2280" height="1069" viewBox="0 0 2280 1069" fill="none" xmlns="http://www.w3.org/2000/svg">
<path fill-rule="evenodd" clip-rule="evenodd" d="M0 788.341H88.2333V885.355H245.855V788.341H332.986V1060.62H245.855V945.976H87.1049V1059.53H0V788.341ZM342.895 788.341H428.871L519.283 893.072L608.593 788.341H693.48L562.278 954.795V1060.62H475.186V947.078L342.895 788.341V788.341ZM704.505 788.341H791.61V998.892H931.618C953.667 998.892 967.998 976.883 967.998 953.706V788.341H1055.08V1005.52C1055.08 1039.68 1016.51 1059.53 994.444 1059.53H704.505V788.341ZM1073.82 788.341H1363.8C1397.97 788.341 1425.53 809.261 1425.53 851.75V1060.07L1338.44 1060.62V895.264C1338.44 872.152 1330.71 858.365 1300.95 858.365H1169.76V1061.23H1073.82V788.341V788.341ZM1452 788.341H1705.55C1756.29 788.341 1795.43 829.118 1795.43 860.531V985.663C1794.87 1007.7 1763.99 1060.6 1725.42 1060.6H1452.02V788.341H1452V788.341ZM1540.74 1000.01H1674.57C1693.84 1000.01 1708.74 985.676 1708.74 968.011V888.649C1708.74 869.35 1692.88 857.82 1672.52 857.82H1540.74V1000.01V1000.01ZM1902.94 787.187H2174.69V1060.62H2077.65V990.099H1910.61V1060.62H1812.51V883.111C1810.29 823.606 1863.24 787.187 1902.94 787.187V787.187ZM1909.51 884.279V928.324H2077.11V858.845H1935.96C1919.45 858.858 1909.51 868.806 1909.51 884.279ZM2192.32 787.797H2279.41V1068.89H2192.32V787.797ZM1145.01 0C783.594 0 490.594 144.665 490.594 323.064C490.594 501.476 783.594 646.154 1145.01 646.154C1506.4 646.154 1799.41 501.489 1799.41 323.064C1799.4 144.678 1506.39 0 1145.01 0V0ZM1082.92 71.9044C1157.62 45.498 1379.53 71.9044 1465.73 113.304C1493.31 139.762 1342.72 224.766 1163.41 261.613C907.054 313.311 1028.89 115.587 1082.92 71.9044ZM642.665 454.707C586.311 414.527 475.964 299.537 658.76 179.994C755.32 123.68 809.339 110.995 876.004 97.2214C908.208 90.2955 931.19 98.3627 902.449 122.512C841.53 185.74 715.075 394.916 703.597 440.933C694.375 471.996 675.997 479.998 642.665 454.707V454.707ZM1169.12 588.088C1061.08 599.553 820.843 563.938 816.226 532.941C820.843 458.17 1197.87 334.023 1265.68 402.997C1294.45 457.016 1239.27 584.625 1169.12 588.088V588.088ZM1718.62 370.767C1691.01 434.007 1597.91 505.315 1402.51 553.602C1372.59 560.45 1362.25 542.084 1381.79 524.835C1414 505.302 1569.19 245.518 1588.72 193.755C1600.22 167.297 1622.05 177.686 1635.86 188.01C1697.95 228.229 1745.07 293.765 1718.62 370.767V370.767Z" fill="#E51937"/>
</svg>
