<svg width="2500" height="326" viewBox="0 0 2500 326" fill="none" xmlns="http://www.w3.org/2000/svg">
<path d="M2135.81 129.171V325.619H2198.6V194.654H2428.24V325.619H2491.03V129.171H2135.81ZM2191.42 65.4826H2433.62C2467.71 59.2034 2491.93 28.7047 2499.1 0H2125.94C2133.12 28.7047 2158.23 58.3064 2191.42 65.4826ZM1944.74 325.619C1976.14 312.164 1993.18 288.841 2000.36 261.93H1717.8V0.897022H1654.11V325.619H1944.74V325.619ZM1183.17 64.5856H1407.43C1441.51 54.7183 1469.32 28.7047 1476.5 0.897022H1121.28V192.86H1411.91V260.136H1184.07C1148.19 270.004 1117.69 294.223 1102.44 325.619H1474.7V129.171H1184.07L1183.17 64.5856ZM630.606 65.4826H872.802C906.889 59.2034 932.006 28.7047 938.285 0H564.227C571.403 28.7047 596.519 58.3064 630.606 65.4826ZM630.606 193.757H872.802C906.889 187.478 932.006 156.979 938.285 128.274H564.227C571.403 156.979 596.519 186.581 630.606 193.757ZM630.606 325.619H872.802C906.889 319.34 932.006 288.841 938.285 260.136H564.227C571.403 288.841 596.519 319.34 630.606 325.619Z" fill="#E51937"/>
<path d="M0 0.897022C7.17618 29.6017 32.2928 58.3064 65.4826 65.4826H167.743L173.125 67.2766V324.722H236.814V67.2766L242.196 65.4826H344.456C378.543 56.5124 402.763 29.6017 409.939 0.897022V0L0 0.897022Z" fill="#E51937"/>
</svg>
