<svg width="575" height="95" viewBox="0 0 575 95" fill="none" xmlns="http://www.w3.org/2000/svg">
<path fill-rule="evenodd" clip-rule="evenodd" d="M68.0467 89.7713C60.4359 85.0032 54.8261 68.5493 54.8261 48.9953C54.8261 48.2778 54.8291 47.5694 54.8473 46.864L54.8534 46.8731C33.6798 43.546 18.3823 34.4305 17.9888 23.647L17.9282 23.7741C12.7484 30.2134 9.79059 37.6577 9.79059 45.5895C9.79059 68.9307 35.4114 88.0548 67.9105 89.7471L68.0467 89.7713ZM0 47.2909C0 21.1766 32.5021 0 72.5939 0C112.689 0 145.191 21.1766 145.191 47.2909C145.191 73.4082 112.689 94.5848 72.5939 94.5848C32.5021 94.5848 0 73.4082 0 47.2909ZM72.5969 6.82374C80.338 6.82374 86.9225 18.567 89.3626 34.9513L89.3687 34.924C104.43 32.5808 114.971 27.1739 114.971 20.8799C114.971 12.4365 95.9987 5.59765 72.5969 5.59765C49.1982 5.59765 30.2255 12.4365 30.2255 20.8799C30.2255 27.1739 40.7669 32.5778 55.8251 34.924L55.8342 34.9513C58.2743 18.567 64.8589 6.82374 72.5969 6.82374ZM77.2833 89.744C109.782 88.0517 135.406 68.9277 135.406 45.5865C135.406 37.6547 132.445 30.2104 127.269 23.7711L127.205 23.6439C126.814 34.4275 111.517 43.543 90.3405 46.8701L90.3495 46.861C90.3647 47.5664 90.3707 48.2748 90.3707 48.9923C90.3707 68.5462 84.7579 85.0001 77.1501 89.7682L77.2833 89.744ZM72.5969 36.1652C75.9569 36.1692 79.3155 36.0258 82.663 35.7353L82.66 35.7384C81.0554 25.2394 77.1562 17.8253 72.5999 17.8253C68.0437 17.8253 64.1475 25.2394 62.5399 35.7384L62.5369 35.7353C65.8824 36.0243 69.2389 36.1678 72.5969 36.1652ZM72.5969 75.0551C78.4246 75.0551 83.1807 62.9274 83.4319 47.7208L83.4622 47.7299C76.235 48.3957 68.9618 48.3957 61.7346 47.7299L61.7649 47.7208C62.0162 62.9274 66.7692 75.0551 72.5969 75.0551ZM370.438 47.2909C370.438 27.3313 386.622 11.1469 406.582 11.1469C426.551 11.1469 442.732 27.3313 442.732 47.2909C442.732 67.2566 426.548 83.435 406.582 83.435C386.622 83.435 370.438 67.2566 370.438 47.2909ZM406.582 70.181C417.729 70.181 426.769 59.9303 426.769 47.2879C426.769 34.6485 417.729 24.3978 406.582 24.3978C395.435 24.3978 386.401 34.6485 386.401 47.2879C386.401 59.9333 395.438 70.181 406.582 70.181ZM483.747 26.2051V81.7941H468.513V26.2051H468.568H447.27V13.6384H504.991V26.2051H483.747ZM523.415 66.4604L523.403 66.4755L517.56 81.7971H499.768L527.89 13.6384H546.847L574.963 81.7971H557.177L551.334 66.4755L551.316 66.4604H523.415ZM537.368 54.9563H546.953L546.947 54.9593L537.432 30.0136H537.302L527.787 54.9593L527.781 54.9563H537.368ZM203.008 26.2051V81.7941H187.777V26.2051H187.832H166.531V13.6384H224.254V26.2051H203.008ZM228.15 47.2909C228.15 27.3313 244.335 11.1469 264.301 11.1469C284.263 11.1469 300.448 27.3313 300.448 47.2909C300.448 67.2566 284.263 83.435 264.301 83.435C244.335 83.435 228.15 67.2566 228.15 47.2909ZM264.301 70.181C275.444 70.181 284.484 59.9303 284.484 47.2879C284.484 34.6485 275.444 24.3978 264.301 24.3978C253.154 24.3978 244.117 34.6485 244.117 47.2879C244.117 59.9333 253.154 70.181 264.301 70.181ZM335.438 81.7941H343.161V55.9159L369.733 13.6384H351.947L335.438 42.2866L318.936 13.6384H301.15L327.718 55.9159V81.7941H335.438Z" fill="#E51937"/>
</svg>
